<svg width="375" height="285" viewBox="0 0 375 285" fill="none" xmlns="http://www.w3.org/2000/svg">
<g clip-path="url(#clip0_294_3281)">
<mask id="mask0_294_3281" style="mask-type:luminance" maskUnits="userSpaceOnUse" x="-65" y="0" width="507" height="285">
<path d="M-64.5 0.5H441.167V284.5H-64.5V0.5Z" fill="white" stroke="white"/>
</mask>
<g mask="url(#mask0_294_3281)">
<path fill-rule="evenodd" clip-rule="evenodd" d="M-65 0H441.667V285H-65V0Z" fill="white"/>
<path d="M151.559 124.393C149.849 124.393 148.057 124.082 146.182 123.461C144.313 122.834 142.754 121.781 141.506 120.303C141.242 119.973 141.135 119.621 141.185 119.247C141.234 118.868 141.44 118.546 141.803 118.282C142.133 118.051 142.485 117.969 142.859 118.035C143.238 118.101 143.543 118.282 143.774 118.579C144.725 119.695 145.883 120.476 147.246 120.921C148.609 121.361 150.094 121.581 151.699 121.581C154.459 121.581 156.413 121.089 157.562 120.105C158.711 119.121 159.286 117.971 159.286 116.658C159.286 115.377 158.67 114.318 157.439 113.483C156.207 112.647 154.31 112.048 151.749 111.685C148.466 111.223 146.036 110.335 144.459 109.021C142.886 107.707 142.1 106.182 142.1 104.444C142.1 102.801 142.51 101.412 143.329 100.28C144.148 99.1474 145.272 98.2953 146.702 97.7235C148.131 97.1463 149.767 96.8576 151.608 96.8576C153.84 96.8576 155.726 97.2617 157.265 98.0699C158.81 98.8725 160.058 99.9446 161.009 101.286C161.273 101.616 161.364 101.97 161.282 102.35C161.199 102.729 160.946 103.032 160.523 103.257C160.193 103.422 159.847 103.471 159.484 103.405C159.126 103.339 158.816 103.144 158.552 102.82C157.727 101.77 156.732 100.973 155.567 100.428C154.401 99.8841 153.049 99.612 151.509 99.612C149.437 99.612 147.826 100.057 146.677 100.948C145.528 101.833 144.953 102.9 144.953 104.148C144.953 105 145.19 105.747 145.663 106.391C146.141 107.028 146.922 107.57 148.005 108.015C149.093 108.455 150.539 108.807 152.342 109.071C154.805 109.401 156.751 109.961 158.181 110.753C159.61 111.539 160.627 112.449 161.232 113.483C161.842 114.516 162.147 115.624 162.147 116.806C162.147 118.351 161.653 119.698 160.663 120.847C159.679 121.996 158.381 122.875 156.771 123.486C155.165 124.09 153.428 124.393 151.559 124.393ZM205.883 124.096C205.46 124.096 205.108 123.956 204.828 123.675C204.547 123.395 204.407 123.043 204.407 122.62V108.386C204.407 105.857 203.742 103.787 202.411 102.177C201.081 100.566 199.349 99.7604 197.216 99.7604C194.951 99.7604 193.104 100.508 191.674 102.003C190.245 103.499 189.563 105.511 189.629 108.04H186.677C186.743 105.775 187.235 103.804 188.153 102.127C189.071 100.45 190.319 99.1447 191.897 98.2101C193.475 97.2755 195.248 96.8082 197.216 96.8082C199.217 96.8082 200.974 97.3002 202.486 98.2843C203.997 99.2684 205.188 100.632 206.056 102.375C206.925 104.112 207.359 106.116 207.359 108.386V122.62C207.359 123.043 207.227 123.395 206.963 123.675C206.705 123.956 206.345 124.096 205.883 124.096ZM170.275 124.096C169.846 124.096 169.491 123.956 169.211 123.675C168.936 123.395 168.799 123.043 168.799 122.62V98.6306C168.799 98.1688 168.936 97.8087 169.211 97.5503C169.491 97.2865 169.846 97.1545 170.275 97.1545C170.731 97.1545 171.091 97.2865 171.355 97.5503C171.619 97.8087 171.751 98.1688 171.751 98.6306V122.62C171.751 123.043 171.619 123.395 171.355 123.675C171.091 123.956 170.731 124.096 170.275 124.096ZM188.153 124.096C187.724 124.096 187.37 123.956 187.089 123.675C186.814 123.395 186.677 123.043 186.677 122.62V108.386C186.677 105.857 186.012 103.787 184.681 102.177C183.351 100.566 181.619 99.7604 179.486 99.7604C177.221 99.7604 175.366 100.483 173.92 101.929C172.474 103.375 171.751 105.247 171.751 107.545H169.285C169.384 105.445 169.884 103.59 170.786 101.979C171.693 100.368 172.9 99.1034 174.406 98.1853C175.918 97.2672 177.611 96.8082 179.486 96.8082C181.487 96.8082 183.244 97.3002 184.756 98.2843C186.267 99.2684 187.458 100.632 188.326 102.375C189.195 104.112 189.629 106.116 189.629 108.386V122.62C189.629 123.043 189.497 123.395 189.233 123.675C188.975 123.956 188.615 124.096 188.153 124.096ZM228.052 124.393C225.424 124.393 223.066 123.794 220.977 122.595C218.893 121.397 217.252 119.755 216.053 117.672C214.855 115.583 214.256 113.241 214.256 110.646C214.256 108.023 214.855 105.67 216.053 103.587C217.252 101.498 218.893 99.8539 220.977 98.6554C223.066 97.4569 225.424 96.8576 228.052 96.8576C230.68 96.8576 233.027 97.4569 235.095 98.6554C237.162 99.8539 238.795 101.498 239.993 103.587C241.192 105.67 241.791 108.023 241.791 110.646L240.562 112.617C240.562 114.849 240.012 116.853 238.913 118.628C237.813 120.404 236.326 121.809 234.451 122.842C232.582 123.876 230.449 124.393 228.052 124.393ZM228.052 121.63C230.119 121.63 231.964 121.146 233.586 120.179C235.213 119.211 236.494 117.9 237.428 116.245C238.368 114.585 238.839 112.718 238.839 110.646C238.839 108.546 238.368 106.668 237.428 105.013C236.494 103.353 235.213 102.039 233.586 101.072C231.964 100.099 230.119 99.612 228.052 99.612C226.012 99.612 224.171 100.099 222.527 101.072C220.889 102.039 219.594 103.353 218.643 105.013C217.692 106.668 217.216 108.546 217.216 110.646C217.216 112.718 217.692 114.585 218.643 116.245C219.594 117.9 220.889 119.211 222.527 120.179C224.171 121.146 226.012 121.63 228.052 121.63ZM240.364 124.096C239.902 124.096 239.531 123.956 239.251 123.675C238.976 123.395 238.839 123.043 238.839 122.62V113.606L239.77 110.646H241.791V122.62C241.791 123.043 241.659 123.395 241.395 123.675C241.137 123.956 240.793 124.096 240.364 124.096ZM250.167 107.644C250.364 105.544 250.939 103.68 251.89 102.053C252.841 100.426 254.073 99.1529 255.585 98.2348C257.096 97.3167 258.77 96.8576 260.607 96.8576C261.855 96.8576 262.822 97.0061 263.509 97.303C264.202 97.5943 264.466 98.1194 264.301 98.878C264.202 99.3673 263.971 99.6615 263.608 99.7604C263.251 99.8594 262.817 99.8676 262.305 99.7852C261.8 99.7027 261.233 99.6615 260.607 99.6615C258.968 99.6615 257.509 100.008 256.228 100.701C254.947 101.388 253.943 102.331 253.218 103.529C252.498 104.728 252.137 106.099 252.137 107.644H250.167ZM250.661 124.096C250.233 124.096 249.878 123.956 249.598 123.675C249.323 123.395 249.185 123.043 249.185 122.62V98.6306C249.185 98.1688 249.323 97.8087 249.598 97.5503C249.878 97.2865 250.233 97.1545 250.661 97.1545C251.118 97.1545 251.478 97.2865 251.742 97.5503C252.006 97.8087 252.137 98.1688 252.137 98.6306V122.62C252.137 123.043 252.006 123.395 251.742 123.675C251.478 123.956 251.118 124.096 250.661 124.096ZM281.793 124.096C279.985 124.063 278.374 123.645 276.961 122.842C275.548 122.034 274.449 120.918 273.662 119.494C272.876 118.065 272.483 116.446 272.483 114.637V90.112C272.483 89.6502 272.621 89.2791 272.895 88.9987C273.176 88.7183 273.53 88.5781 273.959 88.5781C274.416 88.5781 274.784 88.7183 275.064 88.9987C275.345 89.2791 275.485 89.6502 275.485 90.112V114.637C275.485 116.545 276.076 118.098 277.258 119.296C278.44 120.495 279.966 121.094 281.835 121.094H282.923C283.385 121.094 283.753 121.234 284.028 121.515C284.309 121.79 284.449 122.158 284.449 122.62C284.449 123.043 284.309 123.395 284.028 123.675C283.753 123.956 283.385 124.096 282.923 124.096H281.793ZM268.64 100.799C268.244 100.799 267.923 100.676 267.675 100.428C267.428 100.181 267.304 99.8594 267.304 99.4635C267.304 99.0732 267.428 98.7543 267.675 98.5069C267.923 98.2595 268.244 98.1359 268.64 98.1359H281.983C282.379 98.1359 282.701 98.2595 282.948 98.5069C283.195 98.7543 283.319 99.0732 283.319 99.4635C283.319 99.8594 283.195 100.181 282.948 100.428C282.701 100.676 282.379 100.799 281.983 100.799H268.64Z" fill="black"/>
<path d="M154.61 171.582C151.982 171.582 149.64 170.983 147.584 169.785C145.533 168.586 143.925 166.962 142.76 164.911C141.594 162.855 141.012 160.529 141.012 157.934C141.012 155.279 141.586 152.918 142.735 150.851C143.884 148.778 145.459 147.159 147.46 145.993C149.467 144.828 151.768 144.245 154.363 144.245C156.298 144.245 158.071 144.616 159.682 145.358C161.293 146.095 162.738 147.2 164.019 148.674C164.476 149.201 164.638 149.746 164.506 150.306C164.379 150.862 164.019 151.354 163.426 151.782C162.964 152.107 162.453 152.214 161.892 152.104C161.337 151.989 160.831 151.7 160.374 151.238C158.764 149.528 156.76 148.674 154.363 148.674C152.686 148.674 151.207 149.061 149.926 149.836C148.645 150.606 147.645 151.681 146.924 153.061C146.204 154.441 145.844 156.065 145.844 157.934C145.844 159.71 146.212 161.288 146.949 162.668C147.686 164.048 148.711 165.139 150.025 165.942C151.339 166.744 152.867 167.146 154.61 167.146C155.759 167.146 156.768 167.008 157.637 166.733C158.511 166.453 159.308 166.016 160.028 165.422C160.55 164.999 161.092 164.763 161.653 164.713C162.213 164.664 162.705 164.818 163.129 165.175C163.69 165.637 164.003 166.156 164.069 166.733C164.135 167.305 163.937 167.822 163.475 168.284C161.111 170.483 158.156 171.582 154.61 171.582ZM183.224 171.582C180.827 171.582 178.677 170.983 176.775 169.785C174.873 168.586 173.369 166.962 172.264 164.911C171.165 162.855 170.615 160.529 170.615 157.934C170.615 155.345 171.214 153.017 172.413 150.95C173.611 148.877 175.236 147.241 177.286 146.043C179.342 144.844 181.651 144.245 184.213 144.245C186.775 144.245 189.073 144.844 191.107 146.043C193.142 147.241 194.758 148.877 195.956 150.95C197.155 153.017 197.754 155.345 197.754 157.934H195.841C195.841 160.529 195.288 162.855 194.183 164.911C193.084 166.962 191.58 168.586 189.672 169.785C187.77 170.983 185.621 171.582 183.224 171.582ZM184.213 167.146C185.885 167.146 187.377 166.744 188.691 165.942C190.005 165.139 191.039 164.04 191.792 162.643C192.551 161.247 192.93 159.677 192.93 157.934C192.93 156.164 192.551 154.581 191.792 153.184C191.039 151.788 190.005 150.688 188.691 149.886C187.377 149.078 185.885 148.674 184.213 148.674C182.569 148.674 181.082 149.078 179.752 149.886C178.421 150.688 177.371 151.788 176.602 153.184C175.832 154.581 175.447 156.164 175.447 157.934C175.447 159.677 175.832 161.247 176.602 162.643C177.371 164.04 178.421 165.139 179.752 165.942C181.082 166.744 182.569 167.146 184.213 167.146ZM195.247 171.434C194.521 171.434 193.919 171.198 193.441 170.725C192.968 170.246 192.732 169.644 192.732 168.919V161.381L193.672 156.161L197.754 157.934V168.919C197.754 169.644 197.515 170.246 197.037 170.725C196.564 171.198 195.967 171.434 195.247 171.434ZM207.656 154.537C207.656 152.569 208.14 150.804 209.108 149.243C210.081 147.681 211.387 146.441 213.025 145.523C214.669 144.605 216.475 144.146 218.443 144.146C220.416 144.146 221.887 144.468 222.855 145.111C223.822 145.749 224.191 146.51 223.96 147.395C223.861 147.857 223.671 148.212 223.391 148.459C223.116 148.701 222.797 148.855 222.434 148.921C222.071 148.987 221.678 148.97 221.255 148.871C219.155 148.448 217.266 148.418 215.59 148.781C213.913 149.138 212.591 149.809 211.623 150.793C210.655 151.777 210.172 153.025 210.172 154.537H207.656ZM207.706 171.384C206.92 171.384 206.312 171.181 205.883 170.774C205.46 170.362 205.248 169.743 205.248 168.919V146.901C205.248 146.114 205.46 145.51 205.883 145.086C206.312 144.657 206.92 144.443 207.706 144.443C208.53 144.443 209.146 144.649 209.553 145.062C209.965 145.468 210.172 146.081 210.172 146.901V168.919C210.172 169.71 209.965 170.321 209.553 170.75C209.146 171.173 208.53 171.384 207.706 171.384ZM238.984 171.384C237.346 171.384 235.87 170.967 234.556 170.131C233.242 169.29 232.205 168.149 231.447 166.709C230.693 165.263 230.317 163.636 230.317 161.827V138.332C230.317 137.612 230.545 137.021 231.001 136.559C231.463 136.098 232.057 135.867 232.783 135.867C233.503 135.867 234.091 136.098 234.547 136.559C235.009 137.021 235.24 137.612 235.24 138.332V161.827C235.24 163.141 235.6 164.243 236.32 165.134C237.046 166.019 237.934 166.461 238.984 166.461H240.658C241.252 166.461 241.752 166.692 242.159 167.154C242.571 167.61 242.777 168.199 242.777 168.919C242.777 169.644 242.505 170.238 241.961 170.7C241.422 171.156 240.727 171.384 239.875 171.384H238.984ZM228.049 149.663C227.362 149.663 226.804 149.468 226.375 149.078C225.946 148.682 225.732 148.187 225.732 147.593C225.732 146.939 225.946 146.414 226.375 146.018C226.804 145.622 227.362 145.424 228.049 145.424H239.429C240.116 145.424 240.674 145.622 241.103 146.018C241.532 146.414 241.747 146.939 241.747 147.593C241.747 148.187 241.532 148.682 241.103 149.078C240.674 149.468 240.116 149.663 239.429 149.663H228.049Z" fill="black"/>
<path fill-rule="evenodd" clip-rule="evenodd" d="M94.2315 141.559C86.3155 136.429 82.0249 127.217 83.17 117.808C84.3152 108.399 90.6966 100.433 99.6218 97.2705C108.547 94.1083 118.461 96.3011 125.181 102.923L119.751 108.459C115.142 103.907 108.332 102.404 102.196 104.585C96.0598 106.765 91.6665 112.25 90.8704 118.723C90.0743 125.196 93.014 131.53 98.4488 135.052L94.2315 141.559Z" fill="#45719E"/>
<path fill-rule="evenodd" clip-rule="evenodd" d="M71.2059 154.231C70.9305 151.385 73.0144 148.855 75.8604 148.579C77.227 148.447 78.5903 148.863 79.6502 149.736C80.7101 150.609 81.3799 151.867 81.5121 153.234C81.7876 156.08 79.7037 158.61 76.8577 158.885C74.0117 159.161 71.4814 157.077 71.2059 154.231Z" fill="#45719E"/>
<path fill-rule="evenodd" clip-rule="evenodd" d="M110.341 126.313C118.825 131.168 123.632 140.589 122.608 150.352C121.583 160.115 114.918 168.389 105.602 171.464C96.286 174.539 86.0662 171.837 79.5253 164.571L85.0962 159.531C89.6463 164.597 96.7664 166.476 103.263 164.326C109.759 162.175 114.412 156.399 115.134 149.587C115.857 142.775 112.513 136.208 106.603 132.83L110.341 126.313Z" fill="#45719E"/>
</g>
</g>
<defs>
<clipPath id="clip0_294_3281">
<rect width="506.667" height="285" fill="white" transform="translate(-65)"/>
</clipPath>
</defs>
</svg>
