<svg width="178" height="188" viewBox="0 0 178 188" fill="none" xmlns="http://www.w3.org/2000/svg">
<path d="M88.8037 188C137.849 188 177.607 185.967 177.607 183.459C177.607 180.951 137.849 178.917 88.8037 178.917C39.7588 178.917 0 180.951 0 183.459C0 185.967 39.7588 188 88.8037 188Z" fill="#F2F2F2"/>
<path d="M134.551 43.6317H133.542V15.9952C133.542 11.753 131.857 7.68459 128.857 4.6849C125.857 1.68521 121.789 4.6837e-06 117.547 0H58.9953C54.7531 -8.02914e-06 50.6846 1.68519 47.6849 4.68487C44.6852 7.68454 43 11.753 43 15.9952V167.611C43 171.853 44.6852 175.922 47.6849 178.921C50.6846 181.921 54.753 183.606 58.9952 183.606H117.547C121.789 183.606 125.857 181.921 128.857 178.921C131.857 175.922 133.542 171.853 133.542 167.611V63.3038H134.551L134.551 43.6317Z" fill="#3F3D56"/>
<path d="M129.724 16.1067V167.499C129.724 170.668 128.465 173.706 126.225 175.946C123.985 178.186 120.946 179.445 117.778 179.445H58.9456C55.7774 179.445 52.7391 178.186 50.4988 175.946C48.2586 173.706 47.0001 170.668 47 167.499V16.1067C47.0001 12.9386 48.2586 9.90021 50.4989 7.65999C52.7391 5.41976 55.7774 4.16119 58.9456 4.16113H66.0827C65.732 5.02292 65.5984 5.95769 65.6938 6.88321C65.7891 7.80873 66.1105 8.69664 66.6295 9.46884C67.1485 10.241 67.8494 10.8738 68.6704 11.3116C69.4914 11.7494 70.4073 11.9787 71.3378 11.9794H104.881C105.812 11.9787 106.728 11.7494 107.549 11.3116C108.37 10.8738 109.071 10.241 109.59 9.46882C110.109 8.69663 110.43 7.80872 110.525 6.88321C110.621 5.95769 110.487 5.02292 110.136 4.16113H117.778C120.946 4.16119 123.985 5.41976 126.225 7.65999C128.465 9.90021 129.724 12.9386 129.724 16.1067Z" fill="white"/>
<path d="M88.7715 89.7844C88.5577 89.7023 88.3739 89.557 88.2445 89.3679C88.1152 89.1789 88.0465 88.9549 88.0474 88.7258V76.8602C88.047 76.4585 87.8873 76.0735 87.6033 75.7895C87.3193 75.5055 86.9342 75.3457 86.5326 75.3452H84.1028C83.0988 75.3441 82.1363 74.9448 81.4265 74.2349C80.7166 73.525 80.3173 72.5626 80.3162 71.5586V47.7021C80.3173 46.6982 80.7166 45.7357 81.4265 45.0258C82.1363 44.316 83.0988 43.9167 84.1028 43.9155H169.81C170.814 43.9167 171.776 44.316 172.486 45.0258C173.196 45.7357 173.595 46.6982 173.596 47.7021V71.5586C173.595 72.5626 173.196 73.525 172.486 74.2349C171.776 74.9448 170.814 75.3441 169.81 75.3452H103.656C103.446 75.3455 103.238 75.3893 103.046 75.4738C102.854 75.5584 102.681 75.6819 102.539 75.8365L90.0206 89.4934C89.9149 89.6096 89.7861 89.7025 89.6425 89.7661C89.4988 89.8298 89.3435 89.8627 89.1864 89.8628C89.0444 89.8627 88.9037 89.8361 88.7715 89.7844Z" fill="white"/>
<path d="M88.7715 89.7844C88.5577 89.7023 88.3739 89.557 88.2445 89.3679C88.1152 89.1789 88.0465 88.9549 88.0474 88.7258V76.8602C88.047 76.4585 87.8873 76.0735 87.6033 75.7895C87.3193 75.5055 86.9342 75.3457 86.5326 75.3452H84.1028C83.0988 75.3441 82.1363 74.9448 81.4265 74.2349C80.7166 73.525 80.3173 72.5626 80.3162 71.5586V47.7021C80.3173 46.6982 80.7166 45.7357 81.4265 45.0258C82.1363 44.316 83.0988 43.9167 84.1028 43.9155H169.81C170.814 43.9167 171.776 44.316 172.486 45.0258C173.196 45.7357 173.595 46.6982 173.596 47.7021V71.5586C173.595 72.5626 173.196 73.525 172.486 74.2349C171.776 74.9448 170.814 75.3441 169.81 75.3452H103.656C103.446 75.3455 103.238 75.3893 103.046 75.4738C102.854 75.5584 102.681 75.6819 102.539 75.8365L90.0206 89.4934C89.9149 89.6096 89.7861 89.7025 89.6425 89.7661C89.4988 89.8298 89.3435 89.8627 89.1864 89.8628C89.0444 89.8627 88.9037 89.8361 88.7715 89.7844ZM84.1028 44.4201C83.2326 44.4211 82.3984 44.7672 81.7831 45.3825C81.1678 45.9977 80.8217 46.832 80.8207 47.7021V71.5587C80.8217 72.4288 81.1678 73.263 81.7831 73.8783C82.3984 74.4936 83.2326 74.8397 84.1028 74.8407H86.5326C87.068 74.8413 87.5813 75.0542 87.9599 75.4328C88.3385 75.8114 88.5514 76.3247 88.552 76.8602V88.7258C88.552 88.853 88.5904 88.9773 88.6623 89.0822C88.7341 89.1872 88.8359 89.2681 88.9545 89.3142C89.073 89.3603 89.2027 89.3695 89.3266 89.3407C89.4505 89.3118 89.5628 89.2462 89.6487 89.1524L102.168 75.4955C102.357 75.2894 102.587 75.1248 102.843 75.012C103.099 74.8993 103.376 74.841 103.656 74.8407H169.81C170.68 74.8397 171.514 74.4936 172.129 73.8783C172.745 73.263 173.091 72.4288 173.092 71.5586V47.7021C173.091 46.832 172.745 45.9977 172.129 45.3825C171.514 44.7672 170.68 44.4211 169.81 44.4201H84.1028Z" fill="#3F3D56"/>
<path d="M90.9785 54.1869C92.8084 54.1869 94.2919 52.7034 94.2919 50.8735C94.2919 49.0435 92.8084 47.5601 90.9785 47.5601C89.1485 47.5601 87.665 49.0435 87.665 50.8735C87.665 52.7034 89.1485 54.1869 90.9785 54.1869Z" fill="#45719E"/>
<path d="M167.318 69.2076H89.3427C89.1105 69.2079 88.8805 69.1624 88.6658 69.0737C88.4512 68.985 88.2561 68.8549 88.0918 68.6908C87.9275 68.5267 87.7971 68.3318 87.7082 68.1172C87.6193 67.9027 87.5735 67.6727 87.5735 67.4405C87.5735 67.2082 87.6193 66.9783 87.7082 66.7637C87.7971 66.5492 87.9275 66.3543 88.0918 66.1902C88.2561 66.0261 88.4512 65.8959 88.6658 65.8072C88.8805 65.7186 89.1105 65.6731 89.3427 65.6733H167.318C167.787 65.6733 168.237 65.8595 168.568 66.1909C168.899 66.5223 169.086 66.9718 169.086 67.4405C169.086 67.9092 168.899 68.3586 168.568 68.6901C168.237 69.0215 167.787 69.2076 167.318 69.2076Z" fill="#E6E6E6"/>
<path d="M141.916 61.6974H89.3427C89.1105 61.6977 88.8805 61.6522 88.6658 61.5635C88.4512 61.4748 88.2561 61.3447 88.0918 61.1806C87.9275 61.0164 87.7971 60.8215 87.7082 60.607C87.6193 60.3924 87.5735 60.1625 87.5735 59.9302C87.5735 59.698 87.6193 59.468 87.7082 59.2535C87.7971 59.039 87.9275 58.844 88.0918 58.6799C88.2561 58.5158 88.4512 58.3857 88.6658 58.297C88.8805 58.2083 89.1105 58.1628 89.3427 58.1631H141.916C142.384 58.1636 142.833 58.3501 143.164 58.6814C143.495 59.0128 143.681 59.4619 143.681 59.9302C143.681 60.3986 143.495 60.8477 143.164 61.1791C142.833 61.5104 142.384 61.6968 141.916 61.6974Z" fill="#E6E6E6"/>
<path d="M89.1819 94.0431C92.5961 94.0431 95.3639 93.7359 95.3639 93.357C95.3639 92.9781 92.5961 92.6709 89.1819 92.6709C85.7678 92.6709 83 92.9781 83 93.357C83 93.7359 85.7678 94.0431 89.1819 94.0431Z" fill="#F2F2F2"/>
<path d="M102.343 106H75V112.629H102.343V106Z" fill="#45719E"/>
<path d="M119.486 119.257H59V125.057H119.486V119.257Z" fill="#E5E5E5"/>
<path d="M119.486 131.686H59V138.315H119.486V131.686Z" fill="#E5E5E5"/>
</svg>
