<svg width="157" height="147" viewBox="0 0 157 147" fill="none" xmlns="http://www.w3.org/2000/svg">
<path d="M82.0796 2.73477C78.5785 1.47877 74.575 1.66717 71.2152 3.23717C67.8397 4.80717 65.1393 7.75877 63.8519 11.2442C62.9256 13.7562 62.7372 16.488 62.1249 19.0942C61.3399 22.4226 59.8641 25.594 57.8231 28.3415C55.9705 30.8221 53.5998 33.0829 52.7206 36.0502C51.7315 39.4257 52.8462 43.0524 52.5636 46.5535C52.2653 50.1017 50.5226 53.3673 49.9103 56.8841C49.2823 60.3852 50.3028 64.7184 54.2435 66.2256C60.6648 70.5431 68.2479 72.8353 75.831 74.421C87.449 76.8545 100.166 77.6238 110.638 71.9875C113.009 70.7158 115.254 69.0987 116.855 66.9321C118.472 64.7655 119.383 61.9866 118.959 59.3333C118.237 54.8745 113.951 51.2949 114.233 46.789C114.375 44.4497 115.74 42.393 116.62 40.2107C117.53 37.9499 117.938 35.4222 117.263 33.0829C116.588 30.7593 114.955 28.8596 114.092 26.5988C113.15 24.1025 113.213 21.355 112.805 18.7174C111.878 12.8613 108.471 7.46047 103.62 4.06927C98.7687 0.662366 92.5515 -0.687834 86.7111 0.332666C84.9056 0.646666 83.0216 1.25897 82.0796 2.73477Z" fill="#203C46"/>
<path d="M27.7419 95.0666C31.2744 87.9702 34.8226 80.8267 39.6268 74.531C44.431 68.2196 50.6168 62.7559 58.0586 60.0555C62.0778 58.5954 66.3639 57.9832 70.6186 57.6378C89.0033 56.1306 108.283 59.7259 123.308 70.4333C133.968 78.0478 141.975 88.7709 149.448 99.5254C152.463 103.874 155.509 108.412 156.592 113.608C157.691 118.789 156.388 124.834 152.102 127.958C149.448 129.889 146.073 130.454 142.807 130.831C136.025 131.6 129.18 131.773 122.586 131.71C123.418 126.404 123.088 120.94 121.942 115.728C125.961 114.754 130.059 114.032 134.361 113.891C127.39 105.46 120.105 97.2803 112.255 89.2262C114.186 104.282 111.439 119.527 111.674 135.07C91.4839 135.259 71.278 135.463 51.5588 135.447C51.9042 121.662 51.9513 107.878 52.595 93.685L33.0328 125.43C31.6355 127.691 30.1911 129.999 28.0245 131.553C27.2866 132.071 26.4545 132.511 25.5439 132.59C24.0838 132.731 22.6394 131.883 21.7288 130.737C20.8182 129.575 20.3629 128.131 20.0175 126.686C18.6987 120.972 19.2011 114.927 20.8182 109.291C22.4196 103.639 25.8736 98.8346 27.7419 95.0666Z" fill="#45719E"/>
<path d="M74.2296 51.0279C73.947 55.0157 73.6173 59.1448 71.8589 63.2111C75.1402 65.6917 79.1594 67.1675 83.2728 67.4187C87.3705 67.6542 91.5467 66.6494 94.985 64.5927C93.6819 61.4684 92.8969 58.1557 92.6771 54.7802C92.5672 53.0375 92.5672 51.1849 91.6252 49.7248C90.6989 48.2961 89.0504 47.5268 87.4647 46.9145C84.3718 45.737 80.7765 44.9049 77.872 46.4749C75.988 47.4954 74.3552 49.2852 74.2296 51.0279Z" fill="#E69986"/>
<path d="M67.1489 19.4867C72.7538 18.7174 78.0761 15.9699 81.797 11.5739C84.1206 15.3262 87.3705 18.4348 90.9187 21.0724C94.4669 23.6943 98.3291 25.8609 102.537 28.3101C102.898 27.4937 103.777 26.9913 104.656 26.9442C105.551 26.8971 106.415 27.2582 107.105 27.8077C108.236 28.734 108.911 30.1784 108.974 31.6385C109.037 33.1143 108.55 34.5744 107.686 35.7519C106.148 37.9028 103.416 39.1431 100.59 38.8291C99.2868 41.922 97.9837 45.0463 96.084 47.8095C94.2 50.5727 91.6409 52.9905 88.5009 54.1523C85.251 55.3612 81.6086 55.9578 78.2645 55.0315C76.1921 54.4506 73.6173 53.3359 71.906 52.0171C68.7346 49.5679 67.4629 45.1248 66.7093 41.1841C65.9714 37.2434 65.626 33.4754 65.8458 29.4719C65.9714 27.2268 66.6465 24.7148 66.7721 22.4697C66.8349 21.2451 66.9291 19.942 67.1489 19.4867Z" fill="#FCB6A0"/>
<path d="M102.757 30.461C103.636 29.4248 105.269 29.1108 106.493 29.7388C106.729 29.8644 106.964 30.0371 107.137 30.2569C107.482 30.6965 107.529 31.2774 107.576 31.8426C107.31 31.1989 106.634 30.8064 105.944 30.7122C105.253 30.618 104.562 30.775 103.887 30.9791C103.651 31.0419 103.385 31.1361 103.133 31.1047C102.866 31.0733 102.443 30.8221 102.757 30.461Z" fill="#CE7665"/>
<path d="M70.1162 23.0351C71.9845 22.3443 74.0255 22.3286 76.0194 22.2658C76.1921 22.2658 76.3805 22.2501 76.5375 22.1716C76.7102 22.0931 76.8358 21.9361 76.8201 21.7477C76.8201 21.5907 76.6945 21.4651 76.5689 21.3552C75.6426 20.5859 74.3709 20.3033 73.1777 20.4446C71.9845 20.6016 70.8698 21.1511 69.9121 21.8733C69.6766 22.0617 69.4097 22.2972 69.394 22.5955C69.3626 22.9095 69.7394 23.1764 70.1162 23.0351Z" fill="#203C46"/>
<path d="M84.7015 22.8937C87.0251 23.4432 89.2545 24.3067 91.3426 25.4685C91.4996 25.547 91.6723 25.6412 91.8607 25.6569C92.0491 25.6726 92.2689 25.5627 92.3003 25.3743C92.3317 25.233 92.2532 25.0917 92.1747 24.9818C91.7351 24.291 91.0914 23.7572 90.432 23.2705C88.9562 22.2029 87.2292 21.2766 85.4237 21.4022C84.9998 21.4336 84.5445 21.5435 84.2933 21.8732C84.0578 22.2029 84.1834 22.7681 84.7015 22.8937Z" fill="#203C46"/>
<path d="M79.128 24.0083C77.8092 26.693 76.7573 29.519 75.988 32.4078C75.5955 33.8522 75.3129 35.5007 76.145 36.741C76.9143 37.8871 78.1075 38.0284 79.4734 38.1069C80.1485 38.1383 81.5301 37.84 81.3731 37.5731C81.0905 37.0707 80.227 37.5731 79.6461 37.5731C78.8297 37.5731 77.9348 37.5574 77.2754 37.0707C76.2392 36.3014 76.2235 34.7628 76.4904 33.5068C77.1655 30.3511 78.5785 27.4937 79.7246 24.3694C79.8345 24.0868 79.7717 23.6158 79.4577 23.6001C79.3635 23.71 79.2379 23.7885 79.128 24.0083Z" fill="#CE7665"/>
<path d="M86.664 29.2834C86.5384 29.0008 86.1302 28.9066 85.8476 29.0479C85.565 29.2049 85.408 29.5189 85.3766 29.8486C85.3609 30.1626 85.2667 30.6493 85.3452 30.9476C85.4237 31.2145 85.6906 31.3558 85.9418 31.4343C86.2715 31.5285 86.5541 31.2145 86.6797 30.9005C86.8681 30.4609 86.9466 29.9585 86.664 29.2834Z" fill="#203C46"/>
<path d="M73.0992 27.0384C72.8166 26.7401 72.2043 27.1797 72.0944 27.4309C71.9688 27.6978 71.906 28.3258 72.0316 28.5927C72.1415 28.8125 72.4869 29.2835 72.7224 29.2678C72.848 29.2521 73.0207 29.0323 73.0835 28.9224C73.3033 28.4985 73.633 27.5879 73.0992 27.0384Z" fill="#203C46"/>
<path d="M83.7124 41.5455C80.7294 40.5878 77.5894 40.1168 74.4494 40.1639C74.1197 40.1796 73.7743 40.1953 73.5074 40.368C73.1463 40.6035 73.005 41.0745 73.0521 41.4984C73.0835 41.9223 73.2719 42.3148 73.476 42.6916C74.0255 43.7278 74.6692 44.7326 75.5641 45.4705C76.9771 46.6166 78.971 47.0091 80.698 46.4439C82.425 45.8944 83.838 44.4343 84.309 42.6759C84.3718 42.4404 84.4189 42.1892 84.3404 41.9537C84.2462 41.7339 83.9636 41.624 83.7124 41.5455Z" fill="#203C46"/>
<path d="M15.7157 48.7203C15.8256 46.2554 16.8147 43.9161 17.8038 41.6553C18.4318 40.2266 19.1069 38.7508 20.3315 37.7774C20.6141 37.5576 20.9281 37.3692 21.2735 37.3064C21.6346 37.2593 22.0271 37.3849 22.2155 37.6989C22.294 37.8402 22.3411 38.0129 22.3725 38.1856C23.0005 41.8123 21.509 45.753 18.6202 48.0609C17.8038 48.7203 16.6891 49.2698 15.7157 48.7203Z" fill="#E69B88"/>
<path d="M39.2029 45.219C31.7925 44.5596 24.963 43.4449 17.6782 41.8749C16.8775 41.7022 15.9198 41.3725 15.7942 40.5561C15.6843 39.9124 16.2338 39.3001 16.8618 39.096C17.4741 38.9076 18.1492 39.0175 18.8086 39.1274C25.6852 40.2996 32.5671 41.4771 39.4541 42.6599C40.1135 41.294 41.9033 41.0428 43.4105 41.0585C46.1423 41.1056 48.8584 41.5138 51.4803 42.2674C52.0298 42.4244 52.6892 42.7855 52.595 43.335C52.4851 43.9944 51.5431 43.9944 50.8994 43.8374C48.5601 43.2722 46.943 42.8954 44.274 43.0053C43.6931 43.0367 43.2692 43.7118 44.5095 44.0886C45.059 44.2456 51.6216 44.8265 52.0612 45.5801C52.2967 45.9883 52.2025 46.4436 51.7315 46.5849C51.2762 46.7105 50.24 46.6477 49.769 46.5849C48.1153 46.3441 46.4616 46.1034 44.8078 45.8627C44.1955 45.7685 43.2692 45.9883 43.4262 46.5849C43.5204 46.9303 44.4624 47.0559 44.8078 47.103C47.1942 47.4955 51.3547 46.946 51.3076 48.4689C51.2762 49.4266 49.2666 49.4109 48.1205 49.3638C46.3778 49.2853 44.6037 49.1911 42.9709 48.5631C41.3381 47.9351 39.3128 46.6634 39.2029 45.219Z" fill="#BBC0C9"/>
<path d="M16.7048 82.852C17.4427 76.4307 18.5731 70.0408 20.096 63.7451C20.4414 62.285 20.8339 60.7935 20.6769 59.3491C19.6407 57.4494 18.212 55.8009 17.0973 53.9483C15.9826 52.08 15.1976 49.8977 15.5116 48.3277C17.3485 44.8423 20.0489 42.503 23.6128 40.8074C25.1828 40.0538 27.2395 39.52 28.9194 39.991C30.5836 40.462 31.9652 41.7023 31.3058 43.445C31.9181 43.7276 32.5775 43.8375 33.2212 44.0416C33.8492 44.2614 34.4772 44.6382 34.7284 45.2662C34.9796 45.8785 34.6342 46.742 33.8806 47.0874C34.7755 46.742 35.9373 47.2758 36.1571 48.2178C36.3926 49.1441 35.482 50.1803 34.4772 50.196C34.9011 50.3059 35.3407 50.4786 35.5762 50.8397C35.9373 51.4049 35.5762 52.2056 35.011 52.551C34.4301 52.9121 33.7236 52.9278 32.9229 53.1633C31.6669 55.5968 33.0485 58.7996 31.7768 61.7041C31.7977 67.4921 31.8134 73.2802 31.8239 79.0683C31.8239 79.9632 31.8239 80.8895 31.4628 81.7059C30.7249 83.3544 28.8095 84.0766 27.0982 84.6261C25.1985 85.2227 23.2517 85.835 21.2735 85.7251C19.2953 85.5995 16.5007 84.6575 16.7048 82.852Z" fill="#FCB6A0"/>
<path d="M33.1898 53.069C31.2744 53.226 29.4846 54.5448 28.7781 56.3503C29.9399 55.0315 31.3529 53.9639 33.1898 53.069Z" fill="#D48373"/>
<path d="M34.6342 50.1019C31.4942 49.6466 28.1815 50.6985 25.8736 52.8651C28.4955 51.4207 31.3529 50.1961 34.6342 50.1019Z" fill="#D48373"/>
<path d="M34.0062 46.8991C30.3638 46.1612 26.3603 47.4957 23.9111 50.2903C26.8156 48.1551 30.4266 47.0247 34.0062 46.8991Z" fill="#D48373"/>
<path d="M31.3686 43.398C28.1658 42.7072 24.6647 43.6649 22.2626 45.8943C21.6032 46.5066 21.0223 47.2288 20.8339 48.108C23.2046 44.968 27.2866 43.241 31.3686 43.398Z" fill="#D48373"/>
<path d="M15.9041 79.9788C21.5718 80.2614 27.2709 79.9317 33.0799 78.8327C33.7236 91.7067 34.2574 104.628 33.6451 117.502C33.4881 120.752 33.2369 124.08 31.9809 127.095C30.7249 130.093 28.2757 132.778 25.0886 133.5C20.8653 134.442 16.5007 131.632 14.3812 127.848C12.2617 124.08 11.932 119.59 11.9006 115.257C11.8378 103.733 13.5962 92.2876 15.9041 79.9788Z" fill="#235373"/>
<path d="M122.083 116.371C120.513 116.654 118.99 117.078 117.452 117.502C108.55 119.935 99.4281 121.819 90.2122 121.819C88.4224 121.819 86.6326 121.741 84.8585 121.961C79.3321 122.651 74.2767 126.419 72.0159 131.522C74.8733 132.181 78.029 132.448 81.1219 132.166C81.3574 132.762 82.2052 132.841 82.9274 132.841C88.4852 132.841 94.043 132.621 99.5851 132.197C106.933 132.26 114.798 132.056 122.633 131.412C123.763 123.86 122.099 116.418 122.083 116.371Z" fill="#FCB6A0"/>
<path d="M82.2366 130.815C82.7861 130.25 83.4769 129.858 84.1991 129.559C86.4756 128.664 88.9405 128.79 91.3897 128.774C85.4237 128.806 82.3151 130.862 81.1533 132.103C81.1533 132.103 81.8127 131.255 82.2366 130.815Z" fill="#D48373"/>
<path d="M76.5847 131.993C79.4264 128.774 83.7282 127.33 87.8259 126.027C85.9419 126.137 84.1521 126.827 82.378 127.518C81.2005 127.974 79.9916 128.445 78.924 129.135C77.8564 129.842 76.9144 130.784 76.5847 131.993Z" fill="#D48373"/>
<path d="M73.8842 131.49C76.2863 128.099 79.8816 125.54 83.8851 124.41C82.2366 124.441 80.698 125.21 79.2379 125.995C78.029 126.639 76.8358 127.298 75.831 128.225C74.8419 129.135 74.0569 130.36 73.8842 131.49Z" fill="#D48373"/>
<path d="M149.715 146.5H7.2848C3.2656 146.5 0 143.234 0 139.215C0 135.18 3.2656 131.914 7.2848 131.914H149.715C153.734 131.914 157 135.18 157 139.215C157 143.234 153.734 146.5 149.715 146.5Z" fill="#B89074"/>
<path d="M52.1868 119.92C52.1554 119.103 51.9042 118.271 51.3704 117.643C50.8523 117.015 50.0202 116.607 49.2038 116.685C48.2932 116.764 47.5239 117.408 47.0215 118.161C46.6447 118.726 46.3935 119.386 46.4249 120.045C46.4877 121.443 47.9007 122.542 49.298 122.479C50.6796 122.416 52.2496 121.38 52.1868 119.92Z" fill="#E57529"/>
<path d="M47.7751 120.328C47.2099 119.7 46.315 119.433 45.4829 119.574C44.6665 119.715 43.9286 120.218 43.4262 120.893C42.5156 122.086 42.4685 124.001 43.6303 124.943C44.0385 125.273 44.5409 125.461 45.059 125.556C46.5662 125.854 48.2775 125.383 49.2195 124.174C50.1772 122.965 50.1458 121.003 47.7751 120.328Z" fill="#E57529"/>
<path d="M48.2932 117.988C48.2304 116.905 47.1471 116.057 46.0638 116.01C44.9805 115.947 43.9443 116.528 43.1907 117.313C42.8767 117.659 42.5941 118.051 42.4528 118.491C42.076 119.81 43.2221 121.207 44.5723 121.427C45.9225 121.631 47.2727 120.893 48.1519 119.841C48.513 119.417 48.356 119.009 48.2932 117.988Z" fill="#E57529"/>
<path d="M44.2269 120.155C43.2378 119.323 41.6992 119.197 40.6002 119.872C39.5012 120.548 38.9046 121.961 39.2029 123.232C39.2971 123.672 39.5169 124.111 39.878 124.41C40.1292 124.598 40.4275 124.724 40.7415 124.802C41.919 125.085 43.2378 124.661 44.0228 123.735C44.7921 122.808 45.3573 121.128 44.2269 120.155Z" fill="#E57529"/>
<path d="M60.3665 118.773C59.5658 117.345 59.7699 115.366 60.9945 114.283C62.2034 113.2 64.37 113.325 65.312 114.66C66.1755 113.247 68.0124 112.509 69.5981 112.933C70.493 113.168 71.3722 113.859 71.4036 114.77C71.6548 113.922 72.5811 113.341 73.4603 113.451C74.3238 113.577 75.0617 114.377 75.0931 115.256C75.7211 114.519 76.8515 114.22 77.7621 114.581C78.2959 115.304 78.3273 116.355 77.8406 117.109C78.6256 117.454 78.814 118.585 78.3744 119.323C77.9348 120.061 77.0713 120.437 76.2392 120.626C74.6535 120.987 72.9579 120.783 71.5135 120.061C71.1995 119.904 70.807 119.715 70.5087 119.919C70.3046 120.061 70.2418 120.359 70.1476 120.594C69.6452 121.772 68.0281 121.819 66.7564 121.693C66.1912 121.631 65.5946 121.568 65.1079 121.285C64.6055 120.987 64.2287 120.422 64.3386 119.857C63.0355 120.516 61.1358 120.139 60.3665 118.773Z" fill="#77B561"/>
<path d="M78.2331 123.107C80.5986 121.484 82.964 119.867 85.3295 118.255C85.6121 118.067 85.8947 117.863 86.2244 117.816C86.5541 117.753 86.9466 117.863 87.1036 118.146C87.3391 118.569 87.0251 119.072 86.7111 119.417C85.9575 120.218 85.0783 120.877 84.1834 121.521C82.4093 122.824 80.4782 124.174 78.2802 124.221C78.186 124.221 78.0761 124.206 78.0604 124.127C78.0447 124.049 78.2174 124.033 78.2331 123.107Z" fill="#4D7532"/>
<path d="M75.1402 123.436C77.8563 121.395 80.698 119.527 83.6496 117.831C84.0421 117.612 84.466 117.376 84.9213 117.455C85.0469 117.47 85.1725 117.533 85.251 117.643C85.2981 117.706 85.3138 117.8 85.3138 117.894C85.3609 118.648 84.7329 119.276 84.152 119.747C82.5506 121.066 80.8707 122.243 79.1123 123.311C78.2488 123.829 77.3382 124.316 76.3491 124.52C75.9252 124.598 75.3129 124.488 75.1402 123.436Z" fill="#4D7532"/>
<path d="M72.8794 122.337C74.9099 120.924 76.9457 119.516 78.9867 118.114C79.6618 117.627 80.384 117.141 81.2004 116.999C81.8441 116.889 82.6134 117.078 82.8489 117.674C83.0844 118.271 82.6448 118.93 82.2052 119.386C80.8864 120.736 79.2222 121.662 77.558 122.526C76.4695 123.101 75.3705 123.656 74.261 124.19C74.0883 124.284 73.8842 124.363 73.6958 124.347C73.4917 124.315 73.3033 124.111 72.8794 122.337Z" fill="#4D7532"/>
<path d="M70.8698 121.913C73.0521 120.155 75.4385 118.648 77.9505 117.407C78.3901 117.203 78.8454 116.999 79.3321 116.952C79.5048 116.936 79.7089 116.952 79.8502 117.062C80.1328 117.282 80.0543 117.737 79.8659 118.067C79.5519 118.648 79.0181 119.087 78.4843 119.495C76.5846 120.956 74.4651 122.149 72.377 123.311C72.1101 123.468 71.8275 123.625 71.5292 123.656C71.2152 123.687 70.8855 123.593 70.7285 123.326C70.5244 122.981 70.7285 122.541 70.8698 121.913Z" fill="#4D7532"/>
<path d="M49.5021 124.692C48.7328 123.688 48.7956 122.227 49.3451 121.081C49.8946 119.935 50.8523 119.056 51.8414 118.271C53.0817 117.266 54.4476 116.356 56.0176 116.057C57.1009 115.838 58.2313 115.947 59.3303 116.042C61.7481 116.272 64.1607 116.507 66.568 116.748C67.9025 116.889 69.2841 117.031 70.5244 117.565C72.8009 118.522 74.3866 120.61 75.7525 122.667C76.0037 123.06 76.2706 123.483 76.1921 123.939C76.145 124.237 75.9409 124.488 75.7368 124.708C74.4494 126.058 72.5026 126.482 70.6657 126.78C68.4258 127.147 66.1807 127.435 63.9304 127.644C59.1105 128.084 52.8776 129.198 49.5021 124.692Z" fill="#FFE9C7"/>
<path d="M37.8213 121.788C54.3534 122.918 70.8855 123.012 87.3391 121.474C87.0094 123.687 85.9261 125.933 84.4189 127.754C82.896 129.559 80.9649 130.972 78.9396 132.181C67.7455 132.213 56.9282 132.244 46.1109 132.087C41.7149 130.14 37.8213 121.788 37.8213 121.788Z" fill="white"/>
<path d="M50.8523 40.823C50.7895 40.7131 48.9997 41.7022 47.5867 42.5029C46.4877 43.1309 45.8283 44.277 45.8283 45.533V45.6586C45.8283 46.7262 46.2993 47.731 47.1314 48.3904L48.0577 49.1126C49.455 50.2273 51.4489 50.1017 52.7049 48.83L53.8196 47.6996C54.4633 47.0402 54.8087 46.1767 54.8087 45.2504V44.5125C54.8087 42.8954 53.7097 41.4981 52.1397 41.1213L50.8523 40.823Z" fill="#FFE9C7"/>
</svg>
