<svg width="233" height="163" viewBox="0 0 233 163" fill="none" xmlns="http://www.w3.org/2000/svg">
<g filter="url(#filter0_d_278_1835)">
<path d="M74.4018 83.2051C73.4568 84.6226 71.9493 85.6801 70.2843 86.1076" stroke="#2A3315" stroke-width="1.5" stroke-linecap="round" stroke-linejoin="round"/>
<path d="M74.5594 84.3755C73.8169 86.333 73.6369 88.5155 74.0644 90.563" stroke="#2A3315" stroke-width="1.5" stroke-linecap="round" stroke-linejoin="round"/>
<path d="M75.9094 84.1504C75.7294 85.5004 76.0669 86.9179 76.8319 88.0654" stroke="#2A3315" stroke-width="1.5" stroke-linecap="round" stroke-linejoin="round"/>
<path d="M82.2094 50.9624C82.2094 50.9624 79.0594 63.1349 76.8093 69.6149C74.5818 76.1175 70.2393 80.4825 71.5668 83.4975C72.9168 86.5125 77.7543 87.39 78.7893 83.88C79.8244 80.3925 82.3219 69.4799 83.4694 66.3524C84.6169 63.2024 88.8469 53.1224 88.8469 53.1224L82.2094 50.9624Z" fill="#EAE7B1"/>
<path d="M82.2094 50.9626C82.2094 50.9626 86.2594 36.5851 86.5069 27.8551C86.7544 19.1025 86.2819 4.07251 86.2819 4.07251C86.2819 4.07251 89.8594 3.12751 93.2794 3.60001C93.2794 3.60001 92.8744 21.6225 92.6494 28.8901C92.4469 36.1576 89.7244 42.4351 89.7244 42.4351C89.7244 42.4351 97.2394 28.7326 99.9169 21.5325C102.594 14.3325 106.217 0 106.217 0L111.819 1.8225C111.819 1.8225 107.589 17.7075 105.227 23.985C101.312 34.4926 88.8469 53.1226 88.8469 53.1226L82.2094 50.9626Z" fill="#566D31"/>
<g style="mix-blend-mode:overlay" opacity="0.3">
<path d="M88.1719 20.6326C88.3069 21.3301 88.6444 22.1626 89.3419 22.1176C89.9944 22.0726 90.2419 21.2401 90.3094 20.5876C90.6019 17.5276 90.6469 14.4226 90.4444 11.3626C90.3994 10.8901 90.3544 10.4176 90.1519 9.99007C89.7019 9.09007 88.5544 8.93257 88.1044 9.90007C87.6994 10.7776 87.8119 12.2401 87.7444 13.1851C87.6094 15.6826 87.7444 18.1801 88.1719 20.6326Z" fill="white"/>
</g>
<g style="mix-blend-mode:overlay" opacity="0.3">
<path d="M82.9069 52.2002C82.8169 52.4927 82.7494 52.7852 82.7719 53.0777C82.7944 53.3927 82.9519 53.6852 83.2219 53.7977C83.5144 53.9102 83.8519 53.7977 84.0769 53.5952C84.3019 53.3927 84.4369 53.1227 84.5719 52.8527C85.4419 51.0677 86.2219 49.2452 86.9119 47.3852C87.1144 46.8677 87.3169 46.3277 87.2944 45.7652C87.2944 44.8877 86.5969 44.0327 85.6294 44.2802C84.9994 44.4602 84.8869 45.0677 84.7519 45.6527C84.2119 47.8577 83.5144 50.0177 82.9069 52.2002Z" fill="white"/>
</g>
<path d="M37.5693 120.173C32.5068 117.697 28.8168 112.612 28.0068 107.01C27.5118 103.567 28.0068 99.765 26.1618 96.795C22.5618 90.945 12.3467 91.8675 9.42174 85.6574C7.26173 81.0899 10.5467 75.6224 9.28674 70.7399C8.38673 67.2524 5.30423 64.6649 4.31423 61.2224C2.78422 56.0024 7.05923 50.1749 12.4142 49.2974C17.7918 48.3974 23.3043 51.8624 25.6668 56.7449C27.1068 59.7824 27.6468 63.4049 30.1443 65.6324C32.7543 67.9499 36.5793 67.9949 40.0443 68.3099C43.5093 68.6249 47.4693 69.7724 48.7293 73.0124C50.3268 77.0624 46.6368 81.6074 47.8068 85.7924C48.6168 88.7624 51.5418 90.5174 53.7468 92.6549C57.2568 96.03 59.2593 100.912 59.1018 105.772C58.7193 117.54 48.7743 125.663 37.5693 120.173Z" fill="#566D31"/>
<path d="M15.9692 61.4028C29.3793 76.6129 40.2018 94.0729 47.8518 112.838" stroke="#2A3315" stroke-linecap="round" stroke-linejoin="round"/>
<path d="M16.1717 79.8979C20.8067 82.4405 26.4093 83.183 31.5393 81.9005" stroke="#2A3315" stroke-linecap="round" stroke-linejoin="round"/>
<path d="M34.5543 86.58C37.1418 83.205 37.9968 78.5925 36.7818 74.52" stroke="#2A3315" stroke-linecap="round" stroke-linejoin="round"/>
<path d="M33.4518 101.835C36.7368 103.59 40.4718 104.49 44.2068 104.423" stroke="#2A3315" stroke-linecap="round" stroke-linejoin="round"/>
<path d="M45.7818 107.55C48.2343 105.233 49.6293 101.835 49.4943 98.4604" stroke="#2A3315" stroke-linecap="round" stroke-linejoin="round"/>
<g style="mix-blend-mode:overlay" opacity="0.3">
<path d="M53.6343 95.5125C55.0743 96.525 56.5818 97.65 57.8868 98.91C56.9868 96.57 55.5693 94.41 53.7468 92.6549C51.5418 90.5174 48.6168 88.7624 47.8068 85.7924C46.6368 81.6074 50.3268 77.0624 48.7293 73.0124C47.4693 69.7724 43.5093 68.6249 40.0443 68.3099C36.5793 67.9949 32.7543 67.9499 30.1443 65.6324C27.6468 63.4049 27.1068 59.7824 25.6668 56.7449C23.3043 51.8624 17.7918 48.3974 12.4142 49.2974C7.05923 50.1749 2.78422 56.0024 4.31423 61.2224C5.30423 64.6649 8.38673 67.2524 9.28674 70.7399C10.5467 75.6224 7.26173 81.0899 9.42174 85.6574C12.3467 91.8675 22.5618 90.945 26.1618 96.795C28.0068 99.765 27.5118 103.567 28.0068 107.01C28.4343 110.047 29.7393 112.927 31.6293 115.335C31.2243 114.142 30.9543 112.882 30.7743 111.645C30.1893 107.662 30.4818 103.59 29.8743 99.6075C29.2668 95.625 27.5793 91.5075 24.1143 89.4374C20.7393 87.3899 16.0142 87.5024 13.5617 84.3974C12.0317 82.4849 11.8292 79.8524 11.9867 77.4224C12.1442 74.9699 12.5942 72.4949 12.1217 70.1099C11.6042 67.5224 10.0517 65.2724 9.01673 62.8424C8.00423 60.4124 7.55423 57.4199 9.12923 55.3049C11.0417 52.7174 15.1592 52.7849 17.8593 54.5399C20.5593 56.2949 22.2243 59.2199 23.8218 62.0099C25.4418 64.7999 27.2643 67.6799 30.1218 69.1649C32.5968 70.4474 35.4993 70.4924 38.2218 70.9649C40.9668 71.4599 43.9143 72.6524 45.0393 75.1949C46.3668 78.1649 44.7018 81.5849 44.9943 84.8249C45.4218 89.5499 49.7418 92.8125 53.6343 95.5125Z" fill="white"/>
</g>
<g style="mix-blend-mode:overlay" opacity="0.3">
<path d="M20.9192 76.7251C21.4817 77.0402 22.2692 77.2652 22.7417 76.8152C23.1467 76.4327 23.0567 75.7576 22.8767 75.2176C22.4492 73.8676 18.7817 68.4226 17.0492 70.6726C15.4067 72.8101 19.5017 75.9601 20.9192 76.7251Z" fill="white"/>
</g>
<path d="M183.752 134.123C183.662 129.353 186.025 124.605 189.917 121.838C192.325 120.128 195.34 119.025 196.87 116.483C199.84 111.51 195.205 104.22 198.737 99.6078C201.302 96.2328 206.68 96.5703 209.852 93.7353C212.125 91.7103 212.867 88.4028 215.072 86.3102C218.38 83.1377 224.41 84.0828 227.155 87.7503C229.9 91.4403 229.45 96.9078 226.682 100.575C224.995 102.848 222.475 104.648 221.777 107.393C221.035 110.228 222.497 113.13 223.6 115.853C224.702 118.575 225.377 121.995 223.442 124.2C221.035 126.945 216.197 125.955 213.497 128.453C211.607 130.208 211.405 133.088 210.662 135.563C209.492 139.5 206.612 142.898 202.9 144.675C193.945 148.928 184 144.63 183.752 134.123Z" fill="#566D31"/>
<path d="M219.46 95.1304C213.25 111.06 204.34 125.955 193.247 138.983" stroke="#2A3315" stroke-linecap="round" stroke-linejoin="round"/>
<path d="M205.667 102.443C205.555 106.898 207.175 111.398 210.122 114.75" stroke="#2A3315" stroke-linecap="round" stroke-linejoin="round"/>
<path d="M207.782 118.823C211.315 119.453 215.095 118.283 217.682 115.808" stroke="#2A3315" stroke-linecap="round" stroke-linejoin="round"/>
<path d="M195.925 123.908C195.857 127.058 196.645 130.208 198.152 132.975" stroke="#2A3315" stroke-width="1.5" stroke-linecap="round" stroke-linejoin="round"/>
<path d="M196.397 135.36C199.097 136.328 202.202 136.035 204.677 134.618" stroke="#2A3315" stroke-linecap="round" stroke-linejoin="round"/>
<g style="mix-blend-mode:overlay" opacity="0.3">
<path d="M208.48 136.575C208.277 138.06 208.03 139.635 207.58 141.098C208.997 139.5 210.055 137.61 210.662 135.563C211.405 133.088 211.607 130.208 213.497 128.453C216.197 125.955 221.035 126.945 223.442 124.2C225.377 121.995 224.702 118.575 223.6 115.853C222.497 113.13 221.035 110.228 221.777 107.393C222.475 104.648 224.995 102.848 226.682 100.575C229.45 96.9078 229.9 91.4403 227.155 87.7503C224.41 84.0827 218.38 83.1377 215.072 86.3102C212.867 88.4028 212.125 91.7103 209.852 93.7353C206.68 96.5703 201.302 96.2328 198.737 99.6078C195.205 104.22 199.84 111.51 196.87 116.483C195.34 119.025 192.325 120.128 189.917 121.838C187.802 123.345 186.137 125.438 185.08 127.778C185.822 127.013 186.655 126.315 187.51 125.708C190.277 123.728 193.427 122.355 196.195 120.353C198.94 118.373 201.37 115.493 201.595 112.095C201.797 108.765 199.907 105.278 201.257 102.218C202.112 100.35 204.002 99.1578 205.892 98.3478C207.782 97.5153 209.807 96.8853 211.427 95.6028C213.16 94.2078 214.24 92.1828 215.657 90.4728C217.097 88.7628 219.167 87.2553 221.372 87.6153C224.05 88.0653 225.602 91.1703 225.332 93.8703C225.062 96.5703 223.51 98.9553 222.047 101.25C220.585 103.545 219.122 106.02 219.122 108.743C219.122 111.083 220.202 113.288 220.9 115.515C221.597 117.765 221.845 120.42 220.382 122.265C218.672 124.403 215.455 124.493 213.137 125.955C209.762 128.115 208.997 132.615 208.48 136.575Z" fill="white"/>
</g>
<g style="mix-blend-mode:overlay" opacity="0.3">
<path d="M209.875 104.761C209.852 105.323 209.987 105.998 210.505 106.178C210.955 106.336 211.427 105.998 211.765 105.661C212.62 104.806 215.275 99.9455 212.912 99.518C210.685 99.113 209.897 103.411 209.875 104.761Z" fill="white"/>
</g>
<path d="M67.6519 45.5847V28.0122H61.7793H55.9068V45.5847C55.9068 45.5847 46.9293 47.1822 46.9293 56.6098C45.9168 76.5898 45.9618 95.3773 46.9293 113.13C46.9293 114.907 48.3918 116.347 50.1693 116.347H61.7793H73.3894C75.1669 116.347 76.6069 114.907 76.6069 113.13C77.6194 94.7248 77.5744 75.8473 76.6069 56.6098C76.6069 47.1822 67.6519 45.5847 67.6519 45.5847Z" fill="#7C9953"/>
<path d="M54.6693 27.3823V31.7023C54.6693 32.7148 55.4793 33.5248 56.4693 33.5248H66.9094C67.8769 33.5248 68.6644 32.7598 68.7094 31.7698L68.8669 27.1123C68.9119 26.0773 68.0569 25.1998 67.0219 25.2448L56.4243 25.5823C55.4343 25.6048 54.6693 26.4148 54.6693 27.3823Z" fill="#566D31"/>
<path d="M56.4693 27.1572C56.4093 28.6722 56.3493 30.1872 56.2893 31.7022" stroke="#2A3315" stroke-linecap="round" stroke-linejoin="round"/>
<path d="M58.7643 27.1572C58.7643 28.6722 58.7643 30.1872 58.7643 31.7022" stroke="#2A3315" stroke-linecap="round" stroke-linejoin="round"/>
<path d="M61.1944 27.0898C61.1944 28.6948 61.1944 30.3074 61.1944 31.9274" stroke="#2A3315" stroke-linecap="round" stroke-linejoin="round"/>
<path d="M63.6469 27C63.5719 28.665 63.5044 30.3375 63.4444 32.0175" stroke="#2A3315" stroke-linecap="round" stroke-linejoin="round"/>
<path d="M66.2344 26.73C66.2044 28.44 66.1744 30.1425 66.1444 31.8375" stroke="#2A3315" stroke-linecap="round" stroke-linejoin="round"/>
<path d="M50.5743 63.4278C53.7918 63.1803 62.8819 62.6628 73.0744 63.4278C73.7944 63.4953 74.3344 64.0578 74.4019 64.7553C74.6269 68.1753 75.1894 78.4353 74.3794 90.4729C74.3344 91.1479 73.8169 91.6879 73.1419 91.7779C69.6319 92.2504 58.7418 93.4204 50.4393 91.8454C49.7868 91.7329 49.3143 91.1704 49.2918 90.4954C49.1793 86.4904 48.7968 72.6528 49.2468 64.7553C49.2918 64.0578 49.8543 63.4728 50.5743 63.4278Z" fill="#F9F8E5"/>
<path d="M62.3194 76.6574C61.1494 73.9348 59.0794 71.6848 56.7843 69.8398C55.2318 71.2348 54.5793 73.4398 54.8043 75.5098C55.0293 77.6023 56.0418 79.5149 57.3468 81.1349C58.2468 82.1924 59.2593 83.1374 60.3169 84.0374C60.4669 84.1724 60.6169 84.2924 60.7669 84.3974C60.7369 84.2024 60.7144 83.9999 60.6994 83.7899C60.6319 83.1149 60.5869 82.4399 60.4069 81.7874C60.0918 80.4599 59.3494 79.2899 58.6968 78.0749C58.0443 76.8599 57.4818 75.5549 57.5493 74.1823C58.3818 76.6124 60.3394 78.4799 61.4194 80.8199C61.9819 82.0349 62.2744 83.3849 62.2969 84.7349C62.4769 84.5774 62.6344 84.2849 62.7694 83.8349C63.5344 81.4949 63.2644 78.8849 62.3194 76.6574Z" fill="#2A3315"/>
<path d="M68.7769 74.6552C69.7669 72.8552 70.0819 70.7627 70.0819 68.7152C68.6644 68.4902 67.1794 69.0977 66.1669 70.1102C65.1319 71.1227 64.5244 72.4952 64.2319 73.8902C64.0294 74.8352 63.9619 75.8027 63.9394 76.7477C63.9244 76.8977 63.9169 77.0327 63.9169 77.1527C64.0219 77.0477 64.1269 76.9502 64.2319 76.8602C64.5694 76.5227 64.9069 76.2077 65.1994 75.8477C65.7619 75.0827 66.0769 74.1827 66.4594 73.3052C66.8419 72.4502 67.2919 71.5727 68.0569 71.0102C67.1119 72.4952 66.9544 74.3852 66.1444 75.9602C65.7394 76.7927 65.1319 77.5352 64.4119 78.1202C64.5694 78.1427 64.7944 78.0977 65.1094 77.9852C66.6844 77.4002 67.9894 76.1177 68.7769 74.6552Z" fill="#2A3315"/>
<path d="M74.2219 93.915C74.2069 98.1 74.1919 102.293 74.1769 106.493" stroke="#2A3315" stroke-width="1.5" stroke-linecap="round" stroke-linejoin="round"/>
<path d="M74.0194 108.765C74.0194 109.41 74.0194 110.048 74.0194 110.678" stroke="#2A3315" stroke-width="1.5" stroke-linecap="round" stroke-linejoin="round"/>
<g style="mix-blend-mode:overlay" opacity="0.3">
<path d="M52.1043 54.3375C50.8668 56.7225 50.3718 59.445 50.1018 62.1225C49.9218 64.125 49.8318 66.1725 49.8993 68.1975C49.9218 68.8725 49.9668 69.5476 50.2368 70.1776C50.5068 70.7851 51.0918 71.3026 51.7668 71.3251C52.3968 71.3476 52.9593 70.9426 53.2968 70.4026C53.6118 69.8851 53.7243 69.255 53.7918 68.6475C53.9718 66.8475 53.7693 65.0475 53.7693 63.27C53.7693 61.47 53.9718 59.6025 54.8718 58.05C55.4793 57.015 56.3793 56.1825 57.1668 55.2825C57.9768 54.36 58.6968 53.3475 58.8993 52.155C59.0118 51.3225 58.8318 50.085 58.0893 49.545C57.3918 49.005 56.6043 49.5225 55.9518 49.95C54.2868 51.0075 52.9818 52.5825 52.1043 54.3375Z" fill="white"/>
</g>
<g style="mix-blend-mode:overlay" opacity="0.3">
<path d="M50.8443 103.298C51.1818 104.288 52.0143 105.863 53.2743 105.705C53.9043 105.615 54.3993 105.075 54.6243 104.468C54.9843 103.478 54.8943 102.218 54.9618 101.183C55.0293 99.9227 55.0743 98.6852 55.0743 97.4477C55.0518 94.9502 54.8043 92.4527 54.1968 90.0227C54.0393 89.4152 53.8593 88.7852 53.4993 88.2677C52.8468 87.3677 51.6543 87.0977 50.8893 88.0652C50.0793 89.1227 50.1468 91.2827 50.0343 92.5652C49.6968 96.1427 49.7418 99.7202 50.7993 103.163C50.8143 103.208 50.8293 103.253 50.8443 103.298Z" fill="white"/>
</g>
<path d="M120.887 51.5477C120.729 51.5477 120.572 51.5477 120.414 51.5477C120.572 48.5776 121.359 45.6076 122.777 42.9976C123.249 42.1651 123.767 41.3326 123.992 40.4101C124.217 39.4876 124.059 38.3851 123.339 37.7776C122.237 36.8326 120.504 37.3951 119.402 38.3176C117.107 40.2301 116.027 43.2901 115.892 46.2826C115.802 48.1276 116.049 49.9726 116.409 51.7952C108.354 52.8977 100.817 57.6902 96.6319 64.6877L144.017 66.5552C139.742 57.9152 130.517 51.9302 120.887 51.5477Z" fill="#2A3315"/>
<path d="M85.8769 67.2977C77.7543 73.3277 73.1868 82.4402 71.4993 91.6652C67.9668 110.813 76.5843 131.265 93.4144 143.618C99.2194 147.87 106.667 151.313 114.069 149.895C122.147 148.343 127.524 141.548 130.832 134.843C138.774 118.688 139.247 99.8327 132.137 83.4752C128.919 76.0952 121.764 66.6002 113.754 62.4602C105.362 58.1177 92.6944 62.2352 85.8769 67.2977Z" fill="#D86C23"/>
<path d="M143.387 61.3803C152.41 62.2128 160.285 68.0628 164.582 75.3303C168.857 82.6203 169.915 91.1703 169.33 99.4278C168.407 113.063 163.142 126.45 154.345 137.543C151.194 141.525 147.504 145.283 142.869 147.78C138.212 150.3 132.497 151.425 127.322 150.008C120.369 148.095 115.644 141.885 114.092 135.405C112.539 128.948 113.574 122.22 114.812 115.695C117.219 103.095 122.372 90.2703 122.574 77.4678C122.732 67.2978 131.777 60.3228 143.387 61.3803Z" fill="#D86C23"/>
<path d="M97.3969 85.9278C94.3594 103.298 97.0369 121.613 104.934 137.453C107.634 142.853 111.662 148.5 117.737 149.378C121.629 149.94 125.589 148.32 128.537 145.8C131.484 143.28 133.554 139.928 135.354 136.508C143.409 121.05 146.199 103.005 143.162 85.8828C141.879 78.5478 139.359 71.1002 134.004 65.8352C128.222 60.1652 118.209 58.0502 110.762 61.8077C102.437 65.9927 98.8369 77.6478 97.3969 85.9278Z" fill="#DB9821"/>
<path d="M125.117 57.1727C124.487 54.8552 124.239 52.3577 124.914 50.0402C125.589 47.7227 127.367 45.6302 129.684 45.0452C132.024 44.4602 134.837 45.7202 135.534 48.0152C135.962 49.3877 135.354 51.1877 133.982 51.4577C132.924 51.6827 131.844 50.9177 131.507 49.9052C131.169 48.8927 131.462 47.7452 132.092 46.8902C132.699 46.0127 133.577 45.3827 134.499 44.8427C136.839 43.4702 139.652 42.5927 142.262 43.3352C144.872 44.0777 146.987 46.8677 146.267 49.4777" stroke="#2A3315" stroke-width="1.5" stroke-linecap="round" stroke-linejoin="round"/>
<g style="mix-blend-mode:overlay" opacity="0.3">
<path d="M104.327 76.658C102.482 81.4055 102.347 86.783 103.967 91.6205C104.844 94.2755 106.734 97.0881 109.547 97.1781C112.314 97.2456 114.317 94.6355 115.689 92.228C118.007 88.088 119.874 83.6105 120.212 78.863C120.482 74.993 119.582 66.893 114.429 66.4655C109.659 66.083 105.767 72.968 104.327 76.658Z" fill="white"/>
</g>
<g style="mix-blend-mode:overlay" opacity="0.3">
<path d="M77.1018 108.518C77.6868 109.328 78.3618 110.07 79.1494 110.678C79.7794 111.173 80.6119 111.488 81.3994 111.308C82.1419 111.15 82.7494 110.565 83.1319 109.913C85.2019 106.2 85.0444 99.6528 84.3244 95.6253C83.8744 93.1953 81.5344 86.1303 77.7543 87.7728C77.1243 88.0428 76.7418 88.6953 76.4493 89.3253C74.1093 94.3878 73.5243 103.298 77.1018 108.518Z" fill="white"/>
</g>
<path d="M88.0819 109.395C87.5419 106.133 86.7544 102.758 84.6844 100.17C82.6369 97.5829 78.9469 96.0079 75.9094 97.3354C72.3993 95.3104 67.8093 95.2654 64.2543 97.2229C60.6993 99.1804 58.2918 103.073 58.1343 107.123C56.9643 104.828 53.9943 103.59 51.5193 104.378C49.0443 105.165 47.3568 107.888 47.7393 110.453C45.9843 109.8 43.9818 111.105 43.2618 112.838C42.5643 114.57 42.8118 116.528 43.2393 118.35C46.1643 131.243 56.5368 142.156 69.2493 145.778C72.8943 146.813 77.3944 147.061 79.9594 144.271L77.7319 147.646C83.3119 143.506 86.8219 136.958 88.2619 130.141C89.7244 123.345 89.2744 116.258 88.0819 109.395Z" fill="#6F8945"/>
<g style="mix-blend-mode:overlay" opacity="0.3">
<path d="M81.6919 131.491C81.7219 131.491 81.7444 131.491 81.7594 131.491C81.9169 131.468 82.0294 131.356 82.0519 131.221C82.9744 124.718 83.8969 118.013 83.6269 111.331C83.4244 106.088 82.4569 101.431 80.7918 97.3359C80.5218 97.2459 80.2519 97.1634 79.9819 97.0884C81.7594 101.206 82.7719 105.976 82.9969 111.353C83.2669 117.991 82.3219 124.673 81.4219 131.131C81.3994 131.288 81.5119 131.468 81.6919 131.491Z" fill="white"/>
<path d="M75.7293 145.216C75.6843 145.201 75.6394 145.178 75.5944 145.148C75.5944 145.081 75.5718 145.013 75.5268 144.968C75.5119 144.953 75.4969 144.938 75.4819 144.923C75.5944 139.478 75.2794 134.033 74.5819 128.656C73.5019 120.286 71.4318 111.961 69.4293 103.906C68.7993 101.318 68.1243 98.6857 67.3593 96.0757C67.1493 96.1207 66.9393 96.1732 66.7293 96.2332C67.4943 98.8432 68.1693 101.476 68.7993 104.063C70.8018 112.096 72.8718 120.398 73.9518 128.746C74.6043 133.808 74.9193 138.961 74.8743 144.091C74.7994 144.001 74.7319 143.911 74.6719 143.821L70.5993 126.676C68.3943 117.338 66.0993 107.686 62.1393 98.7307C61.9743 98.8807 61.8093 99.0382 61.6443 99.2032C65.5368 108.046 67.7868 117.586 69.9918 126.833L73.7043 142.538C65.7168 131.536 60.4743 118.801 58.3593 105.368C58.2243 105.953 58.1568 106.538 58.1343 107.123C58.0893 107.033 57.9993 106.943 57.9543 106.831C60.2943 120.286 65.7618 132.998 73.9518 143.956C67.9893 139.973 62.9268 133.696 59.2368 125.663C56.1093 118.823 54.1968 111.421 52.4643 104.176C52.2618 104.198 52.0593 104.243 51.8343 104.311C53.5668 111.601 55.4793 119.026 58.6518 125.933C61.9143 133.043 66.2568 138.803 71.3418 142.853C65.3568 139.028 60.9693 133.898 58.0893 129.758C53.5443 123.188 50.3943 115.921 47.7618 108.833C47.6718 109.373 47.6493 109.913 47.7393 110.453C47.7243 110.453 47.7093 110.446 47.6943 110.431C50.2368 117.113 53.2743 123.931 57.5493 130.118C60.5868 134.483 65.2668 139.928 71.7243 143.821C70.3443 143.251 68.9643 142.591 67.5843 141.841C56.0643 135.518 47.4693 123.908 44.6568 111.061C44.4618 111.211 44.2818 111.376 44.1168 111.556C47.0418 124.448 55.6818 136.058 67.2693 142.403C69.6543 143.708 72.0393 144.743 74.4018 145.508L74.5594 146.183C74.6044 146.318 74.6944 146.386 74.8069 146.408C74.8069 146.438 74.8069 146.461 74.8069 146.476C75.0319 146.461 75.2494 146.438 75.4594 146.408C75.4594 146.213 75.4669 146.018 75.4819 145.823C75.4819 145.823 75.4893 145.823 75.5043 145.823C75.8193 145.973 76.1344 146.116 76.4494 146.251C76.9444 146.131 77.4244 145.966 77.8894 145.756C77.1694 145.598 76.4494 145.418 75.7293 145.216Z" fill="white"/>
<path d="M72.6243 96.0757C78.4968 110.161 80.1843 125.866 77.3043 140.851C77.2818 141.031 77.3943 141.211 77.5743 141.233C77.6043 141.248 77.6343 141.248 77.6643 141.233C77.7993 141.233 77.9118 141.121 77.9343 140.986C80.7918 126.023 79.1718 110.363 73.4118 96.2782C73.1568 96.2032 72.8943 96.1357 72.6243 96.0757Z" fill="white"/>
<path d="M78.5418 146.723C78.5643 146.656 78.5643 146.611 78.5643 146.543C78.6093 146.558 78.6468 146.566 78.6768 146.566C78.7068 146.581 78.7368 146.588 78.7668 146.588C78.9018 146.566 79.0368 146.453 79.0593 146.318C79.0818 146.161 78.9918 146.003 78.8343 145.958L78.2043 146.926C78.2268 146.926 78.2493 146.926 78.2718 146.926C78.4068 146.926 78.5193 146.836 78.5418 146.723Z" fill="white"/>
</g>
<g style="mix-blend-mode:overlay" opacity="0.3">
<path d="M75.9093 97.3354C72.3993 95.3104 67.8093 95.2654 64.2543 97.2229C60.6993 99.1804 58.2918 103.073 58.1343 107.123C56.9643 104.828 53.9943 103.59 51.5193 104.378C49.0443 105.165 47.3568 107.888 47.7393 110.453C45.9843 109.8 43.9818 111.105 43.2618 112.838C42.5643 114.57 42.8118 116.528 43.2393 118.35C43.3743 118.913 43.5318 119.453 43.6668 119.993C43.8468 119.138 44.0943 118.283 44.4768 117.473C45.7368 114.818 48.7743 112.77 51.5643 113.648C52.0368 111.465 53.9718 109.71 56.1768 109.395C58.3818 109.103 60.7218 110.295 61.7793 112.253C61.6443 109.62 62.1393 106.875 63.5568 104.67C64.9968 102.443 67.4493 100.8 70.0818 100.733C72.7143 100.665 75.4143 102.398 76.1118 104.94C77.3269 102.465 80.6119 101.565 83.2444 102.33C84.5944 102.713 85.8094 103.433 86.8894 104.355C86.3719 102.848 85.6744 101.408 84.6844 100.17C82.6369 97.5829 78.9469 96.0079 75.9093 97.3354Z" fill="white"/>
</g>
<path d="M76.3144 131.806C78.2044 125.416 77.1244 118.531 77.8894 111.893C78.0244 110.813 78.2044 109.711 78.7219 108.766C79.2394 107.798 80.1394 106.988 81.2194 106.853C82.2994 106.718 83.5144 107.416 83.6944 108.496C83.5819 106.853 83.6494 104.873 85.0444 104.018C85.8319 103.546 86.9119 103.613 87.6319 104.198C88.3294 104.761 88.6444 105.796 88.3519 106.651C88.7119 105.413 90.5344 105.188 91.5694 105.931C92.6269 106.696 93.0769 108.001 93.4594 109.238C95.2144 114.773 96.9469 120.353 97.4644 126.136C98.0044 131.918 97.2619 137.948 94.3369 142.966C91.4119 147.983 86.0569 151.763 80.2744 151.853C76.3819 151.921 72.1743 150.211 69.6093 147.241C66.4593 143.573 71.2968 140.963 73.2768 138.106C74.6043 136.193 75.6393 134.056 76.3144 131.806Z" fill="#7C9953"/>
<g style="mix-blend-mode:overlay" opacity="0.3">
<path d="M90.3994 105.526C90.2044 105.511 90.0094 105.518 89.8144 105.548C91.0294 110.341 92.0644 115.358 92.2894 120.398C92.6044 127.036 91.5019 132.886 89.0044 137.746C85.9669 143.663 80.4994 148.343 74.2219 150.593C74.4919 150.706 74.7619 150.796 75.0094 150.908C81.1744 148.523 86.4844 143.843 89.4994 137.993C92.0419 133.043 93.1669 127.103 92.8519 120.353C92.6269 115.336 91.5919 110.318 90.3994 105.526Z" fill="white"/>
<path d="M85.7644 103.748C86.6194 111.6 87.0694 121.253 84.7519 130.433C82.6819 138.51 78.5644 145.373 73.1194 150.053C73.2994 150.143 73.4794 150.21 73.6594 150.3C79.1044 145.575 83.2219 138.668 85.2919 130.568C87.6544 121.32 87.1819 111.6 86.3269 103.725C86.1319 103.71 85.9444 103.718 85.7644 103.748Z" fill="white"/>
<path d="M80.0269 129.015C78.4744 136.575 75.3469 143.258 70.9819 148.568C71.1319 148.688 71.2894 148.808 71.4544 148.928C75.8644 143.573 78.9919 136.778 80.5894 129.128C81.9619 122.4 82.1869 115.088 81.2419 106.853C81.2419 106.853 81.2344 106.853 81.2194 106.853C81.0394 106.875 80.8594 106.92 80.7019 106.988C81.6244 115.133 81.3994 122.355 80.0269 129.015Z" fill="white"/>
</g>
<path d="M71.7918 144.023C69.3393 140.4 68.0793 136.103 67.4718 131.76C67.2468 130.05 67.1118 128.273 66.4818 126.653C65.8518 125.033 64.6143 123.525 62.9268 123.075C61.2393 122.625 59.1693 123.593 58.8543 125.303C58.2468 123.885 57.6168 122.445 56.6718 121.208C55.7043 119.993 54.3543 119.003 52.8243 118.8C51.2943 118.598 49.5618 119.34 48.9543 120.758C47.8743 118.823 45.6018 117.585 43.3743 117.765C41.1468 117.923 39.0993 119.475 38.3118 121.545C37.4793 123.75 38.0193 126.225 38.8068 128.453C41.2818 135.653 45.9843 142.065 52.1043 146.61C58.2018 151.155 65.7168 153.81 73.3219 154.103C75.1894 154.17 77.1244 154.058 78.9019 153.473C80.4544 152.978 83.0869 151.853 80.5444 150.773C76.9444 149.243 74.0419 147.308 71.7918 144.023Z" fill="#96AF6D"/>
<g style="mix-blend-mode:overlay" opacity="0.3">
<path d="M80.8144 152.663C74.1318 150.998 68.3943 146.79 65.4918 141.21C62.5893 135.608 62.4543 128.993 62.4993 123.008C62.3193 122.978 62.1318 122.97 61.9368 122.985C61.8918 129.038 62.0268 135.743 64.9968 141.458C67.7193 146.7 72.8493 150.773 78.9469 152.73C74.2669 151.988 70.2843 150.503 67.0893 148.32C62.5668 145.238 58.8993 140.22 56.4693 133.83C54.6243 128.993 53.6343 123.863 52.8018 118.8C52.6068 118.77 52.4118 118.755 52.2168 118.755C53.0718 123.885 54.0843 129.105 55.9518 134.033C58.4043 140.535 62.1393 145.62 66.7743 148.793C68.3643 149.873 70.1343 150.78 72.0843 151.515C74.5144 152.28 77.0344 152.843 79.6219 153.225C80.0269 153.068 80.4544 152.888 80.8144 152.663Z" fill="white"/>
<path d="M55.3443 142.966C61.5318 148.411 69.5868 152.101 78.4294 153.608C78.5869 153.563 78.7444 153.541 78.9019 153.473C79.0369 153.443 79.1794 153.398 79.3294 153.338C76.6969 152.956 74.2669 152.348 72.0844 151.516C65.8968 149.603 60.2943 146.566 55.7043 142.538C48.3243 136.036 43.7118 126.923 43.0818 117.811C42.9018 117.833 42.7218 117.856 42.5418 117.901C43.1718 127.148 47.8518 136.373 55.3443 142.966Z" fill="white"/>
</g>
<g style="mix-blend-mode:overlay" opacity="0.3">
<path d="M53.5668 123.143C55.2993 123.3 56.8518 124.358 57.8643 125.775C58.8768 127.17 59.3493 128.903 59.5293 130.613C59.7768 129.69 60.0243 128.745 60.5418 127.935C61.0593 127.125 61.8918 126.45 62.8593 126.405C63.9168 126.338 64.8393 126.99 65.6493 127.665C66.1443 128.093 66.6393 128.565 67.1118 129.038C66.9543 128.228 66.7743 127.418 66.4818 126.653C65.8518 125.033 64.6143 123.525 62.9268 123.075C61.2393 122.625 59.1693 123.593 58.8543 125.303C58.2468 123.885 57.6168 122.445 56.6718 121.208C55.7043 119.993 54.3543 119.003 52.8243 118.8C51.2943 118.598 49.5618 119.34 48.9543 120.758C47.8743 118.823 45.6018 117.585 43.3743 117.765C41.1468 117.923 39.0993 119.475 38.3118 121.545C37.8393 122.783 37.8168 124.088 38.0193 125.393C39.5268 123.885 41.5518 122.828 43.6893 122.738C45.8268 122.625 48.0318 123.593 49.2243 125.37C50.0118 123.84 51.8568 122.985 53.5668 123.143Z" fill="white"/>
</g>
<g style="mix-blend-mode:overlay" opacity="0.3">
<path d="M84.1218 113.355C84.1518 113.49 84.1893 113.625 84.2343 113.76C84.2343 113.603 84.1893 113.468 84.1218 113.355Z" fill="white"/>
<path d="M93.9094 110.633C93.7594 110.168 93.6094 109.703 93.4594 109.238C93.0769 108.001 92.6269 106.696 91.5694 105.931C90.5344 105.188 88.7119 105.413 88.3519 106.651C88.6444 105.796 88.3294 104.761 87.6319 104.198C86.9119 103.613 85.8319 103.546 85.0444 104.018C83.6494 104.873 83.5819 106.853 83.6944 108.496C83.5144 107.416 82.2994 106.718 81.2194 106.853C80.1394 106.988 79.2394 107.798 78.7219 108.766C78.2044 109.711 78.0244 110.813 77.8894 111.893C77.6644 113.918 77.5969 115.966 77.5744 118.013C78.2719 116.731 79.0594 115.493 79.9369 114.323C80.5219 113.558 81.1744 112.771 82.0969 112.523C82.8619 112.321 83.8069 112.658 84.1219 113.356C83.9419 112.231 84.7969 110.993 85.9444 110.858C87.2269 110.678 88.5094 111.848 88.5094 113.153C88.9594 112.006 90.0844 111.286 91.2319 110.926C92.1094 110.656 93.0094 110.566 93.9094 110.633Z" fill="white"/>
</g>
<g style="mix-blend-mode:overlay" opacity="0.3">
<path d="M49.5618 140.265C50.6643 140.805 52.1493 141.12 53.0043 140.243C53.7243 139.5 53.6343 138.308 53.3868 137.295C52.6668 134.505 51.0918 131.918 48.9093 130.005C47.8518 129.06 46.5918 128.34 45.1518 128.7C44.1618 128.948 43.5768 129.443 43.5093 130.478C43.3518 132.93 44.6118 135.653 46.1418 137.498C47.0868 138.645 48.2343 139.59 49.5618 140.265Z" fill="white"/>
</g>
<path d="M195.925 135.428C198.962 131.018 200.672 125.528 199.862 120.241C198.985 114.571 195.452 109.936 191.537 105.841C191.807 105.301 192.032 104.738 192.212 104.153C192.685 102.623 192.73 100.891 192.01 99.473C190.817 97.1555 187.802 96.233 185.282 96.863C183.73 97.268 182.38 98.123 181.21 99.248C176.71 98.618 171.467 99.4955 168.07 100.553C164.312 101.701 160.78 103.591 157.81 106.156C149.8 113.063 146.087 124.606 148.607 134.888C149.665 139.208 151.892 143.348 155.065 146.408C154.817 147.488 154.817 148.658 155.335 149.648C156.032 150.931 157.54 151.673 159.002 151.696C160.172 151.696 161.32 151.313 162.355 150.706C165.797 151.718 169.51 151.651 173.02 150.841C176.935 149.941 180.602 148.163 184.045 146.071C188.612 143.281 192.887 139.838 195.925 135.428Z" fill="#FFC95C"/>
<g style="mix-blend-mode:overlay" opacity="0.3">
<path d="M164.65 105.706C161.32 107.753 158.687 110.926 157.27 114.548C156.82 115.673 156.505 116.843 156.505 118.036C156.505 119.251 156.887 120.466 157.697 121.343C158.642 122.356 160.082 122.806 161.455 122.806C162.85 122.783 164.177 122.356 165.482 121.861C169.622 120.286 173.447 117.856 176.665 114.818C177.857 113.693 178.982 112.433 179.68 110.948C180.377 109.441 180.602 107.663 179.972 106.133C178.96 103.636 175.967 102.893 173.537 102.983C170.41 103.118 167.305 104.063 164.65 105.706Z" fill="white"/>
</g>
</g>
<defs>
<filter id="filter0_d_278_1835" x="-7.62939e-06" y="0" width="233" height="162.12" filterUnits="userSpaceOnUse" color-interpolation-filters="sRGB">
<feFlood flood-opacity="0" result="BackgroundImageFix"/>
<feColorMatrix in="SourceAlpha" type="matrix" values="0 0 0 0 0 0 0 0 0 0 0 0 0 0 0 0 0 0 127 0" result="hardAlpha"/>
<feOffset dy="4"/>
<feGaussianBlur stdDeviation="2"/>
<feComposite in2="hardAlpha" operator="out"/>
<feColorMatrix type="matrix" values="0 0 0 0 0 0 0 0 0 0 0 0 0 0 0 0 0 0 0.25 0"/>
<feBlend mode="normal" in2="BackgroundImageFix" result="effect1_dropShadow_278_1835"/>
<feBlend mode="normal" in="SourceGraphic" in2="effect1_dropShadow_278_1835" result="shape"/>
</filter>
</defs>
</svg>
