<?xml version="1.0" standalone="no"?>
<!DOCTYPE svg PUBLIC "-//W3C//DTD SVG 20010904//EN"
 "http://www.w3.org/TR/2001/REC-SVG-20010904/DTD/svg10.dtd">
<svg version="1.0" xmlns="http://www.w3.org/2000/svg"
 width="180.000000pt" height="180.000000pt" viewBox="0 0 180.000000 180.000000"
 preserveAspectRatio="xMidYMid meet">

<g transform="translate(0.000000,180.000000) scale(0.100000,-0.100000)"
fill="#000000" stroke="none">
<path d="M995 1606 c-27 -7 -67 -20 -89 -29 -21 -9 -42 -17 -47 -17 -8 0 -113
-82 -134 -105 -71 -77 -115 -195 -115 -312 0 -132 74 -279 177 -351 l31 -22
31 42 c17 23 31 46 31 51 0 6 -21 32 -46 59 -68 73 -88 125 -88 228 0 73 4 93
28 142 35 70 83 117 161 159 56 30 67 32 162 33 68 0 107 -4 115 -12 7 -7 18
-12 25 -12 7 0 31 -12 53 -26 40 -26 41 -27 62 -8 12 10 32 30 44 44 l23 25
-22 18 c-38 31 -146 79 -211 93 -72 16 -122 16 -191 0z"/>
<path d="M1114 975 l-26 -45 54 -53 c73 -70 102 -132 106 -227 5 -105 -22
-176 -97 -250 -91 -91 -196 -126 -313 -105 -73 13 -97 23 -157 64 l-45 30 -38
-30 c-21 -17 -41 -35 -45 -42 -13 -21 82 -84 192 -127 58 -22 146 -31 207 -19
183 34 304 117 376 261 86 169 58 364 -74 514 -21 24 -92 74 -105 74 -4 0 -20
-20 -35 -45z"/>
<path d="M411 585 c-16 -14 -33 -35 -36 -46 -16 -48 39 -109 98 -109 38 0 77
46 77 90 0 30 -6 44 -31 64 -39 33 -69 33 -108 1z"/>
</g>
</svg>
